{
  "asset": {
    "version": "2.0",
    "generator": "FullRenderer Assimp importer multi-mesh test"
  },
  "scene": 0,
  "scenes": [
    {
      "nodes": [0, 1]
    }
  ],
  "nodes": [
    {
      "mesh": 0
    },
    {
      "mesh": 1
    }
  ],
  "meshes": [
    {
      "primitives": [
        {
          "attributes": {
            "POSITION": 0,
            "NORMAL": 2
          },
          "indices": 4,
          "mode": 4
        }
      ]
    },
    {
      "primitives": [
        {
          "attributes": {
            "POSITION": 1,
            "NORMAL": 3
          },
          "indices": 5,
          "mode": 4
        }
      ]
    }
  ],
  "buffers": [
    {
      "uri": "data:application/octet-stream;base64,",
      "byteLength": 156
    }
  ],
  "bufferViews": [
    {
      "buffer": 0,
      "byteOffset": 0,
      "byteLength": 72,
      "target": 34962
    },
    {
      "buffer": 0,
      "byteOffset": 72,
      "byteLength": 72,
      "target": 34962
    },
    {
      "buffer": 0,
      "byteOffset": 144,
      "byteLength": 12,
      "target": 34963
    }
  ],
  "accessors": [
    {
      "bufferView": 0,
      "byteOffset": 0,
      "componentType": 5126,
      "count": 3,
      "type": "VEC3",
      "min": [0.0, 0.0, 0.0],
      "max": [1.0, 1.0, 0.0]
    },
    {
      "bufferView": 0,
      "byteOffset": 36,
      "componentType": 5126,
      "count": 3,
      "type": "VEC3",
      "min": [2.0, 0.0, 0.0],
      "max": [3.0, 1.0, 0.0]
    },
    {
      "bufferView": 1,
      "byteOffset": 0,
      "componentType": 5126,
      "count": 3,
      "type": "VEC3"
    },
    {
      "bufferView": 1,
      "byteOffset": 36,
      "componentType": 5126,
      "count": 3,
      "type": "VEC3"
    },
    {
      "bufferView": 2,
      "byteOffset": 0,
      "componentType": 5123,
      "count": 3,
      "type": "SCALAR"
    },
    {
      "bufferView": 2,
      "byteOffset": 6,
      "componentType": 5123,
      "count": 3,
      "type": "SCALAR"
    }
  ]
}
