{
  "asset": { "version": "2.0", "generator": "FullRenderer Assimp skeletal importer test" },
  "scene": 0,
  "scenes": [{ "nodes": [0] }],
  "nodes": [
    { "name": "Root", "children": [1, 2] },
    { "name": "Child" },
    { "name": "SkinnedTriangle", "mesh": 0, "skin": 0 }
  ],
  "skins": [{ "skeleton": 0, "joints": [0, 1], "inverseBindMatrices": 4 }],
  "meshes": [{
    "primitives": [{
      "attributes": {
        "POSITION": 0,
        "NORMAL": 1,
        "JOINTS_0": 2,
        "WEIGHTS_0": 3
      },
      "indices": 5,
      "mode": 4
    }]
  }],
  "buffers": [{
    "uri": "data:application/octet-stream;base64,",
    "byteLength": 280
  }],
  "bufferViews": [
    { "buffer": 0, "byteOffset": 0, "byteLength": 36, "target": 34962 },
    { "buffer": 0, "byteOffset": 36, "byteLength": 36, "target": 34962 },
    { "buffer": 0, "byteOffset": 72, "byteLength": 24, "target": 34962 },
    { "buffer": 0, "byteOffset": 96, "byteLength": 48, "target": 34962 },
    { "buffer": 0, "byteOffset": 152, "byteLength": 128 },
    { "buffer": 0, "byteOffset": 144, "byteLength": 6, "target": 34963 }
  ],
  "accessors": [
    { "bufferView": 0, "byteOffset": 0, "componentType": 5126, "count": 3, "type": "VEC3", "min": [0.0, 0.0, 0.0], "max": [1.0, 1.0, 0.0] },
    { "bufferView": 1, "byteOffset": 0, "componentType": 5126, "count": 3, "type": "VEC3" },
    { "bufferView": 2, "byteOffset": 0, "componentType": 5123, "count": 3, "type": "VEC4" },
    { "bufferView": 3, "byteOffset": 0, "componentType": 5126, "count": 3, "type": "VEC4" },
    { "bufferView": 4, "byteOffset": 0, "componentType": 5126, "count": 2, "type": "MAT4" },
    { "bufferView": 5, "byteOffset": 0, "componentType": 5123, "count": 3, "type": "SCALAR" }
  ]
}
